<?xml version="1.0" encoding="utf-8"?>
<!-- Generator: Adobe Illustrator 27.2.0, SVG Export Plug-In . SVG Version: 6.00 Build 0)  -->
<svg version="1.1" id="Layer_1" xmlns="http://www.w3.org/2000/svg" xmlns:xlink="http://www.w3.org/1999/xlink" x="0px" y="0px"
	 viewBox="0 0 67.74 27.78" style="enable-background:new 0 0 67.74 27.78;" xml:space="preserve">
<style type="text/css">
	.st0{fill:none;stroke:url(#SVGID_1_);stroke-miterlimit:10;}
	.st1{fill:#FBB040;}
</style>
<linearGradient id="SVGID_1_" gradientUnits="userSpaceOnUse" x1="0.4783" y1="13.6957" x2="67.2174" y2="13.6957">
	<stop  offset="0" style="stop-color:#FFF33B"/>
	<stop  offset="0.0595" style="stop-color:#FFE029"/>
	<stop  offset="0.1303" style="stop-color:#FFD217"/>
	<stop  offset="0.2032" style="stop-color:#FEC90E"/>
	<stop  offset="0.2809" style="stop-color:#FDC70C"/>
	<stop  offset="0.6685" style="stop-color:#F3903F"/>
	<stop  offset="0.8876" style="stop-color:#ED683C"/>
	<stop  offset="1" style="stop-color:#E93E3A"/>
</linearGradient>
<path class="st0" d="M54,26.41H13.7c-7.02,0-12.72-5.69-12.72-12.72v0c0-7.02,5.69-12.72,12.72-12.72H54
	c7.02,0,12.72,5.69,12.72,12.72v0C66.72,20.72,61.02,26.41,54,26.41z"/>
<g>
	<path class="st1" d="M9.89,9.93v4.79c0,1.81,0.8,2.58,1.88,2.58c1.2,0,1.97-0.79,1.97-2.58V9.93h1.06v4.71
		c0,2.48-1.31,3.5-3.06,3.5c-1.66,0-2.9-0.95-2.9-3.45V9.93H9.89z"/>
	<path class="st1" d="M16.57,13.78c0-0.6-0.01-1.09-0.05-1.57h0.94l0.06,0.96h0.02c0.29-0.55,0.96-1.09,1.92-1.09
		c0.8,0,2.05,0.48,2.05,2.47v3.47h-1.05v-3.35c0-0.94-0.35-1.72-1.34-1.72c-0.7,0-1.24,0.49-1.42,1.08
		c-0.05,0.13-0.07,0.31-0.07,0.49v3.49h-1.05V13.78z"/>
	<path class="st1" d="M23.48,12.21l1.14,3.26c0.19,0.53,0.35,1.01,0.47,1.49h0.04c0.13-0.48,0.3-0.96,0.49-1.49l1.13-3.26h1.1
		l-2.28,5.8h-1.01l-2.21-5.8H23.48z"/>
	<path class="st1" d="M29.31,15.3c0.02,1.43,0.94,2.02,1.99,2.02c0.76,0,1.21-0.13,1.61-0.3l0.18,0.75
		c-0.37,0.17-1.01,0.36-1.93,0.36c-1.79,0-2.85-1.18-2.85-2.93s1.03-3.13,2.72-3.13c1.89,0,2.4,1.67,2.4,2.73
		c0,0.22-0.02,0.38-0.04,0.49H29.31z M32.41,14.55c0.01-0.67-0.28-1.71-1.46-1.71c-1.07,0-1.54,0.98-1.62,1.71H32.41z"/>
	<path class="st1" d="M34.74,14.02c0-0.68-0.01-1.27-0.05-1.81h0.92l0.04,1.14h0.05c0.26-0.78,0.9-1.27,1.61-1.27
		c0.12,0,0.2,0.01,0.3,0.04v1c-0.11-0.02-0.22-0.04-0.36-0.04c-0.74,0-1.27,0.56-1.42,1.36c-0.02,0.14-0.05,0.31-0.05,0.49v3.09
		h-1.04V14.02z"/>
	<path class="st1" d="M39.88,10.58c0.01,0.36-0.25,0.65-0.67,0.65c-0.37,0-0.64-0.29-0.64-0.65c0-0.37,0.28-0.66,0.66-0.66
		C39.63,9.92,39.88,10.2,39.88,10.58z M38.71,18.01v-5.8h1.05v5.8H38.71z"/>
	<path class="st1" d="M41.63,18.01v-5h-0.82v-0.8h0.82V11.9c0-1.54,0.9-2.53,2.53-2.53c0.54,0,1.18,0.17,1.48,0.38l-0.3,0.8
		c-0.25-0.18-0.71-0.34-1.22-0.34c-1.12,0-1.44,0.78-1.44,1.7v0.29h3.37v5.8H45v-5h-2.33v5H41.63z"/>
	<path class="st1" d="M48.38,15.3c0.02,1.43,0.94,2.02,1.99,2.02c0.76,0,1.21-0.13,1.61-0.3l0.18,0.75
		c-0.37,0.17-1.01,0.36-1.93,0.36c-1.79,0-2.85-1.18-2.85-2.93s1.03-3.13,2.72-3.13c1.89,0,2.4,1.67,2.4,2.73
		c0,0.22-0.02,0.38-0.04,0.49H48.38z M51.48,14.55c0.01-0.67-0.28-1.71-1.46-1.71c-1.07,0-1.54,0.98-1.62,1.71H51.48z"/>
	<path class="st1" d="M58.82,9.5v7.02c0,0.52,0.01,1.1,0.05,1.5h-0.95L57.87,17h-0.02c-0.32,0.65-1.03,1.14-1.98,1.14
		c-1.4,0-2.48-1.19-2.48-2.95c-0.01-1.93,1.19-3.12,2.6-3.12c0.89,0,1.49,0.42,1.75,0.89h0.02V9.5H58.82z M57.76,14.57
		c0-0.13-0.01-0.31-0.05-0.44c-0.16-0.67-0.73-1.22-1.52-1.22c-1.09,0-1.74,0.96-1.74,2.24c0,1.17,0.58,2.15,1.71,2.15
		c0.71,0,1.36-0.47,1.55-1.26c0.04-0.14,0.05-0.29,0.05-0.46V14.57z"/>
</g>
</svg>
